# xmcd
#
# Track frame offsets: 
#        150
#        28183
#        47505
#        72205
#        103218
#        124883
#        146073
#        166463
#        175648
#        196618
#        230888
#
# Disc length: 3379 seconds
#
# Revision: 1
# Processed by: cddbd v1.5.2PL0 Copyright (c) Steve Scherf et al.
# Submitted via: ExactAudioCopy v0.99pb4
#
DISCID=9b0d310b
DTITLE=Jimmy Lloyd Rea and The Switchmasters - Roadhous Blues
DYEAR=1993
DGENRE=Blues
TTITLE0=Born To Sing The Blues
TTITLE1=Needle And Spoon
TTITLE2=Low Down Woman
TTITLE3=Your're Gonna Have To Crawl
TTITLE4=Taylor's Basement
TTITLE5=20 Years Til Go
TTITLE6=I'm Your Only One
TTITLE7=Tribute To Sonny Boy
TTITLE8=Back To Baker City
TTITLE9=Pull The Trigger
TTITLE10=#2 Red Lipstick
EXTD=
EXTT0=
EXTT1=
EXTT2=
EXTT3=
EXTT4=
EXTT5=
EXTT6=
EXTT7=
EXTT8=
EXTT9=
EXTT10=
PLAYORDER=
